<svg xmlns="http://www.w3.org/2000/svg"><symbol id="brachiosaurus" viewBox="0 0 256 256"><path stroke="#fff" stroke-miterlimit="10" d="M86.4 147.2a22.4 22.4 0 0 0-4.6.5c0 .1.1.3.4.6l1.2.6 1.6.6 1.7.5 1.5.3.8.2h1.3l1.6-.2 1.4-.6a2.7 2.7 0 0 0 1-.8 17.4 17.4 0 0 0-3.8-1.4 19 19 0 0 0-4.1-.3z"/><path stroke="#fff" stroke-miterlimit="10" d="M128 47a76.7 76.7 0 1 0 76.7 76.7A76.7 76.7 0 0 0 128 47zm50 42.3v.2a3.2 3.2 0 0 1-.1.8 5.9 5.9 0 0 1-.2 1.3 5.9 5.9 0 0 1-.2 1.3c0 .3-.1.6-.1.8l-.6 1.1c-.1.4-.2.7-.3 1.2a5.6 5.6 0 0 0-.4 1.2c-.1.4-.3.8-.4 1.1l-1 1.9a16.2 16.2 0 0 0-1 1.8l-12 16.7-.2.4h-.1c-.1.1-.2.1-.2.2l-.3.3c-.2.4-.6.8-1 1.4l-1.2 1.7a13.7 13.7 0 0 0-1.3 2 10 10 0 0 0-1.2 1.9 15 15 0 0 0-.9 1.8 4.4 4.4 0 0 0-.3 1.4c0 .2-.1.3-.1.5s.1.2.1.4l-.2.2c0 .2.1.2.2.3v6.1c0 .2-.1.4-.1.6l-.3.7a2.1 2.1 0 0 0-.3.7c-.1.3-.3.5-.3.7v1s.1.1 0 .3-.1.3-.3.4l-.4.5-.3.3v.2l.5.3.5.2v1.8a13 13 0 0 1-.4 2.1c-.1.8-.3 1.5-.4 2.2a15.5 15.5 0 0 0-.4 2.1 14.9 14.9 0 0 0-.2 2.1c0 1.3 0 2.5.1 3.8s.4 2.5.7 3.7a17.1 17.1 0 0 0 3.3 6.6 1.3 1.3 0 0 1-.7.5l-1 .4a2.3 2.3 0 0 1-1.1.3h-1.7l-.8-.2h-1l-.4-.2-.4-.3a.5.5 0 0 1-.2-.4 20.1 20.1 0 0 0 .1-2.5c-.1-.8-.1-1.7-.2-2.5l-.3-2.6a11.3 11.3 0 0 1-.3-2.5c-.1 0-.1-.2-.2-.3a1 1 0 0 0-.1-.4 17 17 0 0 1 .1-2.2 19.3 19.3 0 0 0-.1-2.4 15 15 0 0 0-.4-2.4 10.2 10.2 0 0 0-.8-2.1 2 2 0 0 0-.9 1.1c-.2.5-.3 1-.5 1.6s-.1 1.2-.2 1.8-.6 1-.6 1.4v4.5c0 1.7-.1 3.4-.1 5s.2 3.3.4 5l.2.2.5.4a1 1 0 0 1 .5.4l.2.3c0 .2-.2.3-.5.5l-1.1.5-1.2.6-.8.2h-.1l-2.9-1.6a.4.4 0 0 1-.1-.3v-.3a10.7 10.7 0 0 1 0-1.8 10.9 10.9 0 0 0 .1-1.8 16.4 16.4 0 0 0-.2-2.3 18.5 18.5 0 0 0-.4-2.3l-.3-2.2a19.4 19.4 0 0 1-.2-2.4c0-.7.1-1.4.1-2s.1-1.1.2-1.7l.3-1.7a9 9 0 0 0 .4-1.9c.1-.1.1-.2 0-.4s-.1-.3-.1-.5l-1.1.2-1.1.3-1.2.4-1.1.3h-11.6a2.8 2.8 0 0 0-1.5.6 16.1 16.1 0 0 1 0 3.1c0 1 0 2-.1 3.1s-.1 2-.1 3-.1 2.1-.1 3.2v2.7c0 .3.4.6.7 1a3.9 3.9 0 0 1 .8 1 6.1 6.1 0 0 1 .7 1 1.9 1.9 0 0 1 .4 1.1v.2h-.1a6.3 6.3 0 0 1-2.4.2c0 .3 0 .4-.1.5h-3a2.8 2.8 0 0 1-1.1-.5 1.2 1.2 0 0 1-.5-1.1 2.2 2.2 0 0 1 .1-.8 2.4 2.4 0 0 1 .2-.8 2.4 2.4 0 0 1 .2-.8v-.8a16.9 16.9 0 0 0-.1-2.3c-.1-.8-.3-1.5-.4-2.2a18.9 18.9 0 0 1-.5-2.3 13.3 13.3 0 0 1-.4-2.4h-.3c-.1 0-.2.5-.3.6l-.3.4c0 .1-.1.2-.1.3l-1 1.4-.9 1.3-.6 1.5a4.1 4.1 0 0 0-.3 1.6 3.6 3.6 0 0 0 .2 1l.5.9a4.3 4.3 0 0 0 .4.7l.2.4a.8.8 0 0 1-.2.4l-.7.3h-3.4l-.6-.2a1 1 0 0 1-.4-.5 3 3 0 0 1-.4-1l-.3-1a3 3 0 0 1-.2-1 1.6 1.6 0 0 1 .3-.9l.6-.9.6-1a4.1 4.1 0 0 0 .5-.9l1.5-3.5 1.5-3.6a.5.5 0 0 1 .2-.4l.4-.5.2-.4a.9.9 0 0 0 .1-.5c0-.2 0-.4-.2-.4h-.7l-5.5 1.5-.7.3-1.1.2-1 .4a.7.7 0 0 0-.4.6 1.4 1.4 0 0 0 .2.6l.4.4.5.3c.1.1.3.2.4.4l-.2.2-.8-.5-.8-.5-1-.4h-.9a8.3 8.3 0 0 0-2.2.3l-2.4.7-2.5.7a10.9 10.9 0 0 1-2.6.3l-2-.3-3-.6-3.3-1.1a20.8 20.8 0 0 1-3-1.3 9.8 9.8 0 0 1-2.2-1.7 2.3 2.3 0 0 1-.9-1.8 2.7 2.7 0 0 1 .7-1.9 3.7 3.7 0 0 1 1.7-1 7 7 0 0 1 2.1-.1l2 .2h2.4a2.1 2.1 0 0 1 .8-.2h1.4l1.5.2 1.2.2 1.2.3 1.1.5 1.1.5 1.2.2a4.9 4.9 0 0 0 2.4-.7l2.5-1.5a21.1 21.1 0 0 0 2.3-1.9l2-1.6 1.1-.8 1.1-.6 1.1-.8.9-1a18.2 18.2 0 0 0 1.5-2.7 17.8 17.8 0 0 1 1.7-2.7l.8-.8.9-.6a3.1 3.1 0 0 1 1-.5l1-.6 2.1-1.6 2.1-1.7 2-1.8 2.1-1.8a17.1 17.1 0 0 1 2.3-1.3l2.4-1.1 1.5-.8 1.5-.8 1.5-.7 1.6-.4 13.5-2a5.8 5.8 0 0 0 2.1-.7 12 12 0 0 0 2.1-1.3l1.9-1.7c.6-.7 1.2-1.3 1.7-2l1.6-1.9 1.5-1.7 4.6-5.4.2-.2.3-.3.3-.3.2-.2 1.2-2h.4l.2-.2h.2l.2-.2c.1-.1.2-.2.2-.3l.8-1 .8-1.2.8-1.2.6-1a6.1 6.1 0 0 0 .5-1.2 6.5 6.5 0 0 0 .4-1.3c.2-.4.3-.9.5-1.3s.6-.9.6-1.3v-3.9a2.8 2.8 0 0 0-.7-1.9 7.5 7.5 0 0 0-1.5-1.6l-2.1-1.1a7.2 7.2 0 0 0-1.9-.4 19.7 19.7 0 0 0-3.5.4 7.7 7.7 0 0 0-3.1 1.6 3.8 3.8 0 0 0-.9.9l-.9 1.1-1.1 1.2-1.1 1.1a5.9 5.9 0 0 1-1.1.8 2.3 2.3 0 0 1-1.1.3.9.9 0 0 1-.7-.3.7.7 0 0 1-.3-.6V86a.6.6 0 0 1 .1-.4.7.7 0 0 1 .1-.5v-.3a3 3 0 0 0-.2-1l-.3-.8-.4-.7a2.2 2.2 0 0 1-.1-.8c.2 0 .4 0 .5-.2l.3-.3c0-.2.1-.3.2-.5a.9.9 0 0 1 .5-.3c0-.1.1-.1.3-.1h1.4a.8.8 0 0 0 .6-.2.8.8 0 0 1 .4-.4h.2c.1 0 .1.1.2.2s.1.2.1.3a.2.2 0 0 1 .2-.2l.4-.3.7-.4.8-.4.8-.5.7-.4.3-.3 1.3-.7 1.1-.4h5a1.6 1.6 0 0 0 .9.3l.9.2 1 .2.9.3a10.6 10.6 0 0 1 2.7 1.8 10 10 0 0 1 2 2.6 9.6 9.6 0 0 1 1 3 12.3 12.3 0 0 1 .3 3.3v1.4z"/></symbol><symbol id="micropachycephalosaurus" viewBox="0 0 256 256"><path stroke="#fff" stroke-miterlimit="10" d="M131.1 141.6c-.2 0-.3.1-.3.4a.3.3 0 1 0 0 .6c.1 0 .2-.1.2-.3h.1a.3.3 0 0 0 .3-.3c0-.3-.1-.4-.3-.4zm.9-.5c-.3.2-.5.3-.6.5h.2l.7-.2.5-.4h-.8zm1.8-1.5a.3.3 0 0 0-.3.3c-.2 0-.3.1-.3.4h-.1a.3.3 0 0 0-.3.3c0 .2.1.4.3.4s.3-.2.3-.4h.1c.2 0 .2-.1.2-.3h.1c.2 0 .3-.2.3-.4a.3.3 0 0 0-.3-.3zm14-3.6l-.8.9c.2.3.3.5.5.6h.7a1.1 1.1 0 0 0 .8-.3 2.3 2.3 0 0 0 .7-.7l.5-.9c.1-.3.2-.7.3-.7h-2.1c-.1.1-.3.8-.6 1.1z"/><path stroke="#fff" stroke-miterlimit="10" d="M128.3 51a76.7 76.7 0 1 0 76.7 76.7A76.6 76.6 0 0 0 128.3 51zm57.5 45.5l-.9.2h-2.2a18.6 18.6 0 0 0-3.2.8 6.7 6.7 0 0 0-3.7 2.2 7.7 7.7 0 0 0-1 1.8 13.3 13.3 0 0 0-1 2.4c-.2.8-.6 1.8-1 3a17.2 17.2 0 0 1-.7 2.1l-.7 1.9-.9 1.9-1.1 1.9a21.3 21.3 0 0 1-1.6 2.5 17.4 17.4 0 0 1-1.8 2.2l-1.8 2.1a22.3 22.3 0 0 0-1.9 2.4 4.8 4.8 0 0 0-.8 1.6l-.6 1.5a5.7 5.7 0 0 1-.8 1.3 3.3 3.3 0 0 1-1.5 1l-.8.3-1.3.4-1.2.4-.8.3a1.7 1.7 0 0 1 .1 1.2 1.2 1.2 0 0 1-.5.5l-.8.4a1 1 0 0 0-.5.6l-1.3 4a3.6 3.6 0 0 1-.7 1l-1 .5h-3.6a.6.6 0 0 1-.2-.5v-.2l.2-.2h.1a.4.4 0 0 0 .1-.3l-2.1 1-2 1.3a13.7 13.7 0 0 0-2 1.3l-2.1 1.2-.5.2-.7.4-.6.5c-.2.1-.2.4-.2.6v.2l1.1 1 1.1 1.1 1.3.9 1.2.8 1.1.4 1.2.3 1.1.4a2.1 2.1 0 0 1 1 .6 3.4 3.4 0 0 1 .9.8l.6.9.7.9a3.6 3.6 0 0 0 .9.8l1 .3 1.3.4 1 .6a1.4 1.4 0 0 1 .5 1v.4l-3.4.6-.6.3H147l-.7-.4-1-.6-1-.6-.6-.4-.2-.2-.2-.3-.2-.3v-.3l-1.4-2.7-.7-.3-1.1-.4-1.3-.6-1.2-.6-1.1-.4-.7-.4-1.7-1a9.1 9.1 0 0 1-1.6-1.3 11.1 11.1 0 0 1-1.2-1.6 6 6 0 0 1-.6-1.9l-.3.2-.4.2-.5.4-1 .7-1.3.8-1.3.9-1.1.6-.5.3-3.6 2.1a15.7 15.7 0 0 0-2.8 2.1 11.8 11.8 0 0 0-2.2 2.7c-.5 1-.4 2.4-1.4 4v.8a6.2 6.2 0 0 0 .7 2.7 4.2 4.2 0 0 0 1.3 1.6l1.6.8 1.5.6a1.9 1.9 0 0 1 1.7 1.8h-8l-.2-.2c0-.1-.1-.1-.2-.2h-.6a1.9 1.9 0 0 1-.8-1 5 5 0 0 1-.3-1.3c0-.4.1-.9.1-1.4a7.4 7.4 0 0 0 .2-1.2v-.9a2.8 2.8 0 0 1 .2-1.1l.3-1.6c.2-.6.3-1.2.5-1.9s.3-1.3.5-1.9a7.5 7.5 0 0 1 .4-1.6 6.5 6.5 0 0 0 .2-1.1c.1-.4.3-.8.4-1.2l.6-1.1a7.2 7.2 0 0 0 2.7-1.6 12.6 12.6 0 0 0 2-2 16.3 16.3 0 0 0 1.7-2 12.9 12.9 0 0 1 2.1-1.9l.9-.4 1.2-.5 1.4-.6 1.3-.6 1-.9a1.2 1.2 0 0 0 .3-.9v-.8a.9.9 0 0 0-.4-.7l-.4-.2-.7-.3-.7-.4-.5-.2a4 4 0 0 1-1.2-.7l-1.6-1.1-1.6-1a1.6 1.6 0 0 0-1-.3h-4.8c-3.6 0-7.1-.1-10.6.1H94.5l-7.7-.2q-3.9-.3-7.5-.9a59.5 59.5 0 0 1-7.3-1.7 47.9 47.9 0 0 1-7.1-3.1l-.8-.4-1-.6-.8-.8a1.6 1.6 0 0 1-.3-.9 3.2 3.2 0 0 1 1.3.2l1.4.6 1.3.5 1 .4a18.3 18.3 0 0 0 2.8 1l3 .9c1 .3 2.1.4 3.1.6l2.9.2h16l1.6-.2 2-.3 2.2-.4 2.1-.3 1.6-.4 4.1-.8 4.5-1c1.5-.3 2.9-.8 4.4-1.2a35.2 35.2 0 0 0 3.9-1.7l2.4-1.1 2.2-1 2.4-.8 2.6-.5h2.7l.7-.2 1.1-.2 2-.4 2.5-.5 2.4-.6 2-.7a5.3 5.3 0 0 0 1.1-.4h4c1.6 0 3.2.3 4.8.4a35.9 35.9 0 0 0 4.7.3 6 6 0 0 0 3-.7 13.7 13.7 0 0 0 2.8-2.1 23.7 23.7 0 0 0 2.3-3l2-3.4a32.3 32.3 0 0 0 1.5-3.4c.5-1.1.8-2.1 1.1-2.9a17.2 17.2 0 0 0 .7-2.1l.6-1.9a7.7 7.7 0 0 1 .7-1.6 6 6 0 0 1 1.1-1.2 4.8 4.8 0 0 1 1.6-.9 6.5 6.5 0 0 1 2.2-.5h1.9c.5 1 1 .5 1.8.8a18.9 18.9 0 0 1 2.1.9 7.8 7.8 0 0 1 1.8 1.1 1.9 1.9 0 0 1 .8 1.3 1.2 1.2 0 0 1-.3.9 1.8 1.8 0 0 1-.7.2z"/></symbol><symbol id="velociraptor" viewBox="0 0 256 256"><path stroke="#fff" stroke-miterlimit="10" d="M136.7 52a76.7 76.7 0 1 0 76.6 76.7A76.6 76.6 0 0 0 136.7 52zm66.3 70h-4.5l-5.5-.2-5.5-.6-5.5-.6a49.3 49.3 0 0 0-5.5-.3 80.6 80.6 0 0 0-9.8.6 51.5 51.5 0 0 0-9.6 2.2l-18.4 6.7c-.3.1-.5.4-.7.9a8.4 8.4 0 0 0-.5 1.7c-.1.6-.3 1.2-.4 1.7a5 5 0 0 1-.3 1.2 1.5 1.5 0 0 0 .8.8l1.5.7 1.7.7a5.6 5.6 0 0 1 1.7.9 4.3 4.3 0 0 1 1.2 1.1 2 2 0 0 1 .5 1.5.9.9 0 0 1-.3.7 1.8 1.8 0 0 1-.7.5 3.1 3.1 0 0 1-1 .5l-.9.5a2.4 2.4 0 0 0-.8.6 1.2 1.2 0 0 0-.3.9 2.3 2.3 0 0 0 .5 1.5 4 4 0 0 0 1.2 1l1.4.8a4.1 4.1 0 0 1 1.3 1 11.3 11.3 0 0 1 1.2 2.1 19.5 19.5 0 0 1 .8 2.2 18.5 18.5 0 0 1 .4 2.3 19.4 19.4 0 0 1 .2 2.4l.8.8v4.2h1.1l.6.2h.4v.5a1.5 1.5 0 0 1-.1.6 1.4 1.4 0 0 1-.2.7 1.3 1.3 0 0 1-.4.6c-.1.2-.3.2-.5.2h-3.1l-.6-.5-.9-.5-1-.5-.6-.5h-3.8a3.4 3.4 0 0 1 .4-1.8 2.8 2.8 0 0 1 1-.9l1.3-.4 1.3-.2 1-.4c.2-.1.3-.4.3-.8v-.4l-.5-1.1-.8-1.4a11.9 11.9 0 0 0-.9-1.5 3.5 3.5 0 0 0-.9-1.1l-.8-.5-1.1-.5-1.1-.7a1.3 1.3 0 0 1-.6-.7c-.2-.5-.3-1-.5-1.7a11.8 11.8 0 0 0-.7-2 4 4 0 0 0-1-1.5 2.4 2.4 0 0 0-1.8-.6 14.7 14.7 0 0 0-3.6.4 12.8 12.8 0 0 0-3.4 1.4 16.1 16.1 0 0 0-3 2.1 10.1 10.1 0 0 0-2.4 2.7h-.4a.3.3 0 0 1-.1-.2c-.1-.1-.1-.2-.1-.4s-.1-.2-.1-.3v-.2h-.2l-.6.3-.5.7-.5.8a1.7 1.7 0 0 1-.6.6l-.4-1v-1a9.9 9.9 0 0 1 .2-1.7l.6-1.7a8.8 8.8 0 0 0 .5-1.5 9.9 9.9 0 0 0 .3-1.7h-3a1.7 1.7 0 0 1 .4-1.4 3.2 3.2 0 0 1 1-1l1.3-.5 1.3-.2h1.8l1.8.3 1.7.3h3.1a1.5 1.5 0 0 0-1-.9l-1.5-.2-1.6-.2a3.1 3.1 0 0 1-1.4-.1l-2.3-1.3h-.2a6.1 6.1 0 0 0-1.9 0h-1.9a5.8 5.8 0 0 1-1.8-.4l-1.6-.9-1.6-.8a3.2 3.2 0 0 0-1.7-.4v3.7h1l.6-.2.5-.3c.2-.1.2-.3.5-.4h.4v1.7l1.2-.4a.4.4 0 0 1 .1.3.4.4 0 0 1 .1.3 3.1 3.1 0 0 1-.8 2.3 16.6 16.6 0 0 1-1.9 1.8 10.9 10.9 0 0 0-2.8-.8l-3-.2v-4.7l-1 .3-1.3.6-1.1.7c-.3.3-.6.5-.6.7v4.2a3.9 3.9 0 0 0 1.8-.2l1.1-.3.7-.4h1l.2.4a2.4 2.4 0 0 0 .2.8l.3.8a4.3 4.3 0 0 0 .1.5 2.7 2.7 0 0 1-.3 1.2 3 3 0 0 1-.6 1.1 3.9 3.9 0 0 1-1 .8 1.9 1.9 0 0 1-1 .3h-.7l-1.8-.2-2.2-.5a5.4 5.4 0 0 1-1.9-.7 1.5 1.5 0 0 1-.9-1.3v-7l.5-.5 1.2-1 1.4-1.3 1.4-1.5a11.6 11.6 0 0 0 1.1-1.6 3.7 3.7 0 0 0 .5-1.6 2.8 2.8 0 0 0-.7-1.7 10.4 10.4 0 0 0-1.7-1.2l-2-.9-1.5-.5-.8-5.5a12.4 12.4 0 0 0-.4-1.8 4.9 4.9 0 0 0-.6-1.7 6.9 6.9 0 0 0-1.1-1.3 2.8 2.8 0 0 0-1.6-.5 6.9 6.9 0 0 0-2.2.3 8.2 8.2 0 0 0-1.9.9l-1 .6-1.6.9-1.8 1.1-1.7 1a10.1 10.1 0 0 1-1.6 1c-.4.3-.8.7-1 .7h-1.6l-1.3-.3a2 2 0 0 1-.8-.4c-.3-.2-.2-.5-.2-.9v-1.1c0-.3-.1-.5 0-.5h1a.1.1 0 0 1 0-.2.9.9 0 0 1 .1-.5.7.7 0 0 1 .1-.5v-.3l-.5-.5-.5-.3c-.2-.1-.3-.3-.4-.4s-.2-.4-.2-.8a2 2 0 0 1 .1-.7l.4-.7c.2-.2.2-.4.4-.5l.5-.2v.5c0 .3.3.6.3.8a.8.8 0 0 0 .8.5.9.9 0 0 0 .6-.3l.6-.7a3 3 0 0 0 .4-1c.1-.2.1.2.1-.8h-7.3c-.2 0-.3-.1-.5-.3l-.7-.4-.5-.5a.7.7 0 0 1-.3-.6 2.9 2.9 0 0 1 .7-1.9 3.8 3.8 0 0 1 1.6-1.1 6 6 0 0 1 1.9-.6l1.7-.5 1.3-.6 2.1-.9 2-1a4.5 4.5 0 0 1 1.3-.6h8.2a4.4 4.4 0 0 1 2.3.6 9 9 0 0 1 1.9 1.5 14.9 14.9 0 0 1 1.5 2l1.4 2a10.3 10.3 0 0 0 1.4 1.5 2.1 2.1 0 0 0 1.5.7.5.5 0 0 0 .5-.3c0-.1.2-.2.5-.2a1.5 1.5 0 0 1 .9.2l.9.4.9.4 1 .2h2.4l2.5-.3 2.5-.3h2.5l4.4.2a24.1 24.1 0 0 1 4.3 1l3.1 1.2 3 1.3 3.2 1a12 12 0 0 0 3.3.5h1.5l7.8-1.6c2.6-.6 5.2-1 7.7-1.4l7.8-1c2.6-.2 5.3-.3 7.9-.3h5.3a22.4 22.4 0 0 1 3.1.5l21.9 4.4h7.1c-.5 0-1.1.6-1.9.8a19.4 19.4 0 0 1-2.4-.2z"/></symbol></svg>